<?xml version="1.0" standalone="no"?>
<!DOCTYPE svg PUBLIC "-//W3C//DTD SVG 20010904//EN"
 "http://www.w3.org/TR/2001/REC-SVG-20010904/DTD/svg10.dtd">
<svg version="1.0" xmlns="http://www.w3.org/2000/svg"
 width="256.000000pt" height="31.000000pt" viewBox="0 0 256.000000 31.000000"
 preserveAspectRatio="xMidYMid meet">

<g transform="translate(0.000000,31.000000) scale(0.100000,-0.100000)"
fill="#000000" stroke="none">
<path d="M200 155 c0 -101 3 -125 14 -125 11 0 15 17 18 66 5 109 -2 184 -18
184 -11 0 -14 -24 -14 -125z"/>
<path d="M30 150 c0 -100 3 -120 15 -120 13 0 15 20 15 120 0 100 -2 120 -15
120 -12 0 -15 -20 -15 -120z"/>
<path d="M996 203 c-4 -38 -9 -92 -11 -121 -4 -40 -2 -52 9 -52 14 0 25 65 26
160 l1 55 37 -104 c21 -58 42 -106 49 -108 10 -4 48 84 80 182 8 25 11 12 17
-77 7 -88 11 -108 23 -108 13 0 15 10 10 67 -4 38 -7 92 -7 121 0 48 -2 52
-23 52 -20 0 -28 -12 -58 -95 -30 -83 -49 -116 -49 -86 0 6 -14 48 -31 95 -23
65 -35 86 -49 86 -15 0 -19 -11 -24 -67z"/>
<path d="M1294 259 c-8 -14 18 -31 30 -19 9 9 0 30 -14 30 -5 0 -12 -5 -16
-11z"/>
<path d="M1934 259 c-8 -14 18 -31 30 -19 9 9 0 30 -14 30 -5 0 -12 -5 -16
-11z"/>
<path d="M2154 259 c-8 -14 18 -31 30 -19 9 9 0 30 -14 30 -5 0 -12 -5 -16
-11z"/>
<path d="M610 220 c0 -11 -7 -20 -15 -20 -8 0 -15 -4 -15 -10 0 -5 7 -10 15
-10 12 0 15 -14 15 -65 0 -66 12 -85 54 -85 23 0 20 17 -4 23 -17 4 -20 14
-20 66 0 58 1 61 25 61 14 0 25 5 25 10 0 6 -11 10 -25 10 -18 0 -25 5 -25 20
0 11 -7 20 -15 20 -8 0 -15 -9 -15 -20z"/>
<path d="M2040 220 c0 -11 -7 -20 -15 -20 -8 0 -15 -4 -15 -10 0 -5 7 -10 15
-10 12 0 15 -14 15 -65 0 -66 12 -85 54 -85 23 0 20 17 -4 23 -17 4 -20 14
-20 66 0 58 1 61 25 61 14 0 25 5 25 10 0 6 -11 10 -25 10 -18 0 -25 5 -25 20
0 11 -7 20 -15 20 -8 0 -15 -9 -15 -20z"/>
<path d="M254 184 c-18 -15 -18 -15 3 -9 12 3 31 1 43 -5 17 -9 20 -21 20 -75
0 -51 3 -65 15 -65 25 0 21 124 -5 150 -24 24 -49 25 -76 4z"/>
<path d="M438 193 c-30 -8 -20 -20 12 -15 28 4 60 -11 60 -28 0 -5 -18 -11
-39 -15 -49 -8 -76 -35 -67 -68 7 -29 43 -41 80 -27 17 6 26 6 26 0 0 -6 7
-10 15 -10 12 0 15 14 15 63 0 35 -6 71 -12 80 -14 18 -61 29 -90 20z m72 -98
c0 -28 -37 -52 -64 -42 -39 15 -7 66 42 67 17 0 22 -6 22 -25z"/>
<path d="M754 188 c-38 -18 -55 -79 -34 -118 13 -24 72 -43 110 -35 39 9 31
23 -10 17 -34 -5 -80 20 -80 43 0 12 14 15 65 15 59 0 65 2 65 20 0 28 -44 70
-72 69 -13 0 -33 -5 -44 -11z m70 -24 c26 -26 18 -34 -34 -34 -27 0 -50 4 -50
9 0 16 31 41 50 41 10 0 26 -7 34 -16z"/>
<path d="M1300 115 c0 -69 3 -85 15 -85 12 0 15 16 15 85 0 69 -3 85 -15 85
-12 0 -15 -16 -15 -85z"/>
<path d="M1390 115 c0 -69 3 -85 15 -85 12 0 15 13 15 59 0 79 24 106 71 81
16 -9 19 -22 19 -75 0 -51 3 -65 15 -65 25 0 21 124 -5 150 -24 24 -41 25 -80
5 -27 -14 -30 -14 -30 0 0 8 -4 15 -10 15 -6 0 -10 -35 -10 -85z"/>
<path d="M1649 189 c-41 -15 -62 -77 -39 -118 5 -10 23 -24 39 -31 97 -40 173
98 80 145 -32 17 -43 17 -80 4z m73 -26 c37 -33 12 -113 -35 -113 -31 0 -57
29 -57 63 0 57 52 86 92 50z"/>
<path d="M1820 115 c0 -69 3 -85 15 -85 12 0 15 13 15 58 0 60 11 82 42 82 10
0 18 7 18 15 0 8 -6 15 -14 15 -8 0 -21 -7 -30 -15 -8 -8 -17 -15 -20 -15 -3
0 -6 7 -6 15 0 8 -4 15 -10 15 -6 0 -10 -35 -10 -85z"/>
<path d="M1940 115 c0 -69 3 -85 15 -85 12 0 15 16 15 85 0 69 -3 85 -15 85
-12 0 -15 -16 -15 -85z"/>
<path d="M2160 115 c0 -69 3 -85 15 -85 12 0 15 16 15 85 0 69 -3 85 -15 85
-12 0 -15 -16 -15 -85z"/>
<path d="M2284 188 c-38 -18 -55 -79 -34 -118 13 -24 72 -43 110 -35 39 9 31
23 -10 17 -34 -5 -80 20 -80 43 0 12 14 15 65 15 59 0 65 2 65 20 0 28 -44 70
-72 69 -13 0 -33 -5 -44 -11z m70 -24 c26 -26 18 -34 -34 -34 -27 0 -50 4 -50
9 0 16 31 41 50 41 10 0 26 -7 34 -16z"/>
<path d="M2450 180 c-11 -11 -20 -24 -20 -29 0 -10 24 -31 54 -46 11 -6 21
-19 21 -30 0 -17 -6 -20 -37 -19 -44 1 -50 -12 -11 -22 37 -10 78 15 78 46 0
19 -9 30 -35 42 -46 23 -48 53 -2 53 34 0 42 9 16 19 -27 10 -43 7 -64 -14z"/>
</g>
</svg>
